<svg width="1331" height="1331" viewBox="0 0 1331 1331" fill="none" xmlns="http://www.w3.org/2000/svg">
<rect width="1331" height="1331" fill="white"/>
<circle cx="674" cy="613" r="502" fill="#E5C056"/>
<mask id="mask0_954_3211" style="mask-type:alpha" maskUnits="userSpaceOnUse" x="170" y="111" width="1008" height="1004">
<ellipse cx="674" cy="613" rx="504" ry="502" fill="#010101"/>
</mask>
<g mask="url(#mask0_954_3211)">
<path d="M673.497 608.269L730.236 1162.28L621.552 1162.75L673.497 608.269Z" fill="#8A2715"/>
<path d="M673.498 625L619.156 70.75L727.84 70.75L673.498 625Z" fill="#8A2715"/>
<path d="M670.426 609.483L930.893 1102.25L830.257 1143.13L670.426 609.483Z" fill="#8A2715"/>
<path d="M676.703 625L418.378 131.118L519.19 90.6698L676.703 625Z" fill="#8A2715"/>
<path d="M676.889 608.306L516.164 1141.69L415.597 1100.64L676.889 608.306Z" fill="#8A2715"/>
<path d="M670.453 623.759L833.492 91.0756L933.88 132.558L670.453 623.759Z" fill="#8A2715"/>
<path d="M679.976 609.614L328.231 1042.49L250.796 966.526L679.976 609.614Z" fill="#8A2715"/>
<path d="M668.138 621.482L1021.76 190.129L1098.86 266.422L668.138 621.482Z" fill="#8A2715"/>
<path d="M682.335 611.989L192.049 879.657L149.32 780.12L682.335 611.989Z" fill="#8A2715"/>
<path d="M666.863 618.5L1158.31 352.946L1200.6 452.666L666.863 618.5Z" fill="#8A2715"/>
<path d="M682.335 611.989L192.049 879.657L149.32 780.12L682.335 611.989Z" fill="#8A2715"/>
<path d="M666.863 618.5L1158.31 352.946L1200.6 452.666L666.863 618.5Z" fill="#8A2715"/>
<path d="M682.513 612.268L182.302 861.051L143.429 759.959L682.513 612.268Z" fill="#8A2715"/>
<path d="M666.802 618.185L1168.09 371.559L1206.52 472.817L666.802 618.185Z" fill="#8A2715"/>
<path d="M683.64 618.333L144.247 471.763L182.908 370.59L683.64 618.333Z" fill="#8A2715"/>
<path d="M667.322 615.175L1199.94 784.56L1156.97 883.996L667.322 615.175Z" fill="#8A2715"/>
<path d="M683.594 614.977L128.802 684.017L125.873 575.804L683.594 614.977Z" fill="#8A2715"/>
<path d="M683.666 615.361L126.31 659.382L128.29 551.147L683.666 615.361Z" fill="#8A2715"/>
<path d="M666.874 614.985L1224.42 573.364L1221.97 681.589L666.874 614.985Z" fill="#8A2715"/>
<path d="M668.017 611.771L1095.56 970.628L1017.78 1046.24L668.017 611.771Z" fill="#8A2715"/>
<path d="M679.697 623.795L253.716 263.1L331.826 187.828L679.697 623.795Z" fill="#8A2715"/>
<path d="M675.203 608.122L621.715 1162.45L515.052 1141.67L675.203 608.122Z" fill="#141414"/>
<path d="M671.908 624.527L727.801 70.4303L834.373 91.6701L671.908 624.527Z" fill="#141414"/>
<path d="M671.889 608.735L834.459 1141.56L727.891 1162.82L671.889 608.735Z" fill="#141414"/>
<path d="M675.117 625.153L514.861 91.6325L621.52 70.8312L675.117 625.153Z" fill="#141414"/>
<path d="M671.889 608.735L834.459 1141.56L727.891 1162.82L671.889 608.735Z" fill="#141414"/>
<path d="M675.117 625.153L514.861 91.6325L621.52 70.8312L675.117 625.153Z" fill="#141414"/>
<path d="M666.425 616.513L1221.93 679.617L1199.18 785.472L666.425 616.513Z" fill="#141414"/>
<path d="M678.503 608.813L416.949 1101.01L326.287 1041.31L678.503 608.813Z" fill="#141414"/>
<path d="M669.179 622.728L932.867 131.666L1023.27 191.757L669.179 622.728Z" fill="#141414"/>
<path d="M678.503 608.813L416.949 1101.01L326.287 1041.31L678.503 608.813Z" fill="#141414"/>
<path d="M669.179 622.728L932.867 131.666L1023.27 191.757L669.179 622.728Z" fill="#141414"/>
<path d="M681.291 610.706L251.069 966.371L190.113 876.747L681.291 610.706Z" fill="#141414"/>
<path d="M667.344 620.029L1099.11 266.22L1159.67 356.106L667.344 620.029Z" fill="#141414"/>
<path d="M683.098 613.403L151.569 786.137L128.059 680.447L683.098 613.403Z" fill="#141414"/>
<path d="M683.228 613.73L145.093 764.814L125.913 658.26L683.228 613.73Z" fill="#141414"/>
<path d="M666.683 616.611L1205.47 467.846L1224.19 574.482L666.683 616.611Z" fill="#141414"/>
<path d="M683.781 617.648L126.064 578.427L144.22 471.695L683.781 617.648Z" fill="#141414"/>
<path d="M683.029 621.289L193.384 352.458L254.853 263.182L683.029 621.289Z" fill="#141414"/>
<path d="M669.218 611.767L1157.69 882.704L1095.83 971.715L669.218 611.767Z" fill="#141414"/>
<path d="M683.169 620.959L182.773 372.543L240.48 280.809L683.169 620.959Z" fill="#141414"/>
<path d="M668.974 612.015L1168.29 862.584L1110.18 954.068L668.974 612.015Z" fill="#141414"/>
<path d="M669.099 610.522L1020.42 1043.73L929.635 1103.25L669.099 610.522Z" fill="#141414"/>
<path d="M678.273 624.536L328.835 189.814L419.878 130.69L678.273 624.536Z" fill="#141414"/>
</g>
<ellipse cx="674" cy="620.5" rx="453.801" ry="449.5" fill="#E5C056"/>
<ellipse cx="678.5" cy="618.5" rx="510.5" ry="499.5" fill="#E5C056"/>
<ellipse cx="641.495" cy="589.529" rx="352.752" ry="361.414" transform="rotate(157.035 641.495 589.529)" fill="black"/>
<ellipse cx="661.861" cy="637.591" rx="352.752" ry="320.152" transform="rotate(157.035 661.861 637.591)" fill="#E5C056"/>
<ellipse rx="355.972" ry="379.425" transform="matrix(-0.912416 0.409264 -0.371641 -0.928376 631.495 617.065)" fill="black"/>
<ellipse rx="356.717" ry="339.71" transform="matrix(-0.910511 0.413485 -0.367699 -0.929945 651.861 668.591)" fill="#E5C056"/>
<ellipse rx="344.807" ry="369.84" transform="matrix(0.911024 0.412353 0.368751 -0.929528 738.633 618.713)" fill="black"/>
<ellipse rx="345.824" ry="331" transform="matrix(0.909093 0.416593 0.36483 -0.931074 718.627 666.886)" fill="#E5C056"/>
<ellipse cx="675.5" cy="749" rx="281.5" ry="260" fill="black"/>
<ellipse cx="675.5" cy="743" rx="281.5" ry="230" fill="#8A2715"/>
<ellipse cx="675.5" cy="712" rx="281.5" ry="230" fill="#E5C056"/>
<ellipse rx="287.198" ry="308.048" transform="matrix(0.911024 0.412353 0.368751 -0.929528 676.106 536.766)" fill="#8A2715"/>
<ellipse rx="289.839" ry="275.698" transform="matrix(0.909093 0.416593 0.36483 -0.931074 657.811 576.144)" fill="#E5C056"/>
<ellipse rx="236.96" ry="254.163" transform="matrix(-0.911024 0.412353 -0.368751 -0.929528 627.598 565.821)" fill="#8A2715"/>
<ellipse rx="239.139" ry="227.471" transform="matrix(-0.909093 0.416593 -0.36483 -0.931074 642.693 598.31)" fill="#E5C056"/>
<mask id="mask1_954_3211" style="mask-type:alpha" maskUnits="userSpaceOnUse" x="508" y="451" width="332" height="330">
<ellipse cx="674" cy="616" rx="166" ry="165" fill="#010101"/>
</mask>
<g mask="url(#mask1_954_3211)">
<path d="M673.497 611.269L730.236 1165.28L621.552 1165.75L673.497 611.269Z" fill="#8A2715"/>
<path d="M673.498 628L619.156 73.75L727.84 73.75L673.498 628Z" fill="#8A2715"/>
<path d="M670.426 612.483L930.893 1105.25L830.257 1146.13L670.426 612.483Z" fill="#8A2715"/>
<path d="M676.703 628L418.378 134.118L519.19 93.6698L676.703 628Z" fill="#8A2715"/>
<path d="M676.889 611.306L516.164 1144.69L415.597 1103.64L676.889 611.306Z" fill="#8A2715"/>
<path d="M670.453 626.759L833.492 94.0756L933.88 135.558L670.453 626.759Z" fill="#8A2715"/>
<path d="M679.976 612.614L328.231 1045.49L250.796 969.526L679.976 612.614Z" fill="#8A2715"/>
<path d="M668.138 624.482L1021.76 193.129L1098.86 269.422L668.138 624.482Z" fill="#8A2715"/>
<path d="M682.335 614.989L192.049 882.657L149.32 783.12L682.335 614.989Z" fill="#8A2715"/>
<path d="M666.863 621.5L1158.31 355.946L1200.6 455.666L666.863 621.5Z" fill="#8A2715"/>
<path d="M682.335 614.989L192.049 882.657L149.32 783.12L682.335 614.989Z" fill="#8A2715"/>
<path d="M666.863 621.5L1158.31 355.946L1200.6 455.666L666.863 621.5Z" fill="#8A2715"/>
<path d="M682.513 615.268L182.302 864.051L143.429 762.959L682.513 615.268Z" fill="#8A2715"/>
<path d="M666.802 621.185L1168.09 374.559L1206.52 475.817L666.802 621.185Z" fill="#8A2715"/>
<path d="M683.64 621.333L144.247 474.763L182.908 373.59L683.64 621.333Z" fill="#8A2715"/>
<path d="M667.322 618.175L1199.94 787.56L1156.97 886.996L667.322 618.175Z" fill="#8A2715"/>
<path d="M683.594 617.977L128.802 687.017L125.873 578.804L683.594 617.977Z" fill="#8A2715"/>
<path d="M683.666 618.361L126.31 662.382L128.29 554.147L683.666 618.361Z" fill="#8A2715"/>
<path d="M666.874 617.985L1224.42 576.364L1221.97 684.589L666.874 617.985Z" fill="#8A2715"/>
<path d="M668.017 614.771L1095.56 973.628L1017.78 1049.24L668.017 614.771Z" fill="#8A2715"/>
<path d="M679.697 626.795L253.716 266.1L331.826 190.828L679.697 626.795Z" fill="#8A2715"/>
<path d="M675.203 611.122L621.715 1165.45L515.052 1144.67L675.203 611.122Z" fill="#141414"/>
<path d="M671.908 627.527L727.801 73.4303L834.373 94.6701L671.908 627.527Z" fill="#141414"/>
<path d="M671.889 611.735L834.459 1144.56L727.891 1165.82L671.889 611.735Z" fill="#141414"/>
<path d="M675.117 628.153L514.861 94.6325L621.52 73.8312L675.117 628.153Z" fill="#141414"/>
<path d="M671.889 611.735L834.459 1144.56L727.891 1165.82L671.889 611.735Z" fill="#141414"/>
<path d="M675.117 628.153L514.861 94.6325L621.52 73.8312L675.117 628.153Z" fill="#141414"/>
<path d="M666.425 619.513L1221.93 682.617L1199.18 788.472L666.425 619.513Z" fill="#141414"/>
<path d="M678.503 611.813L416.949 1104.01L326.287 1044.31L678.503 611.813Z" fill="#141414"/>
<path d="M669.179 625.728L932.867 134.666L1023.27 194.757L669.179 625.728Z" fill="#141414"/>
<path d="M678.503 611.813L416.949 1104.01L326.287 1044.31L678.503 611.813Z" fill="#141414"/>
<path d="M669.179 625.728L932.867 134.666L1023.27 194.757L669.179 625.728Z" fill="#141414"/>
<path d="M681.291 613.706L251.069 969.371L190.113 879.747L681.291 613.706Z" fill="#141414"/>
<path d="M667.344 623.029L1099.11 269.22L1159.67 359.106L667.344 623.029Z" fill="#141414"/>
<path d="M683.098 616.403L151.569 789.137L128.059 683.447L683.098 616.403Z" fill="#141414"/>
<path d="M683.228 616.73L145.093 767.814L125.913 661.26L683.228 616.73Z" fill="#141414"/>
<path d="M666.683 619.611L1205.47 470.846L1224.19 577.482L666.683 619.611Z" fill="#141414"/>
<path d="M683.781 620.648L126.064 581.427L144.22 474.695L683.781 620.648Z" fill="#141414"/>
<path d="M683.029 624.289L193.384 355.458L254.853 266.182L683.029 624.289Z" fill="#141414"/>
<path d="M669.218 614.767L1157.69 885.704L1095.83 974.715L669.218 614.767Z" fill="#141414"/>
<path d="M683.169 623.959L182.773 375.543L240.48 283.809L683.169 623.959Z" fill="#141414"/>
<path d="M668.974 615.015L1168.29 865.584L1110.18 957.068L668.974 615.015Z" fill="#141414"/>
<path d="M669.099 613.522L1020.42 1046.73L929.635 1106.25L669.099 613.522Z" fill="#141414"/>
<path d="M678.273 627.536L328.835 192.814L419.878 133.69L678.273 627.536Z" fill="#141414"/>
</g>
<ellipse cx="674" cy="614.5" rx="117" ry="115.5" fill="#E5C056"/>
<path d="M673.088 609L1241 319.117L673.088 22L90 319.117L673.088 609Z" fill="white"/>
<circle cx="674" cy="613" r="111" fill="white"/>
</svg>
